<?xml version="1.0" encoding="UTF-8" standalone="no"?>
<svg
   xmlns:dc="http://purl.org/dc/elements/1.1/"
   xmlns:cc="http://creativecommons.org/ns#"
   xmlns:rdf="http://www.w3.org/1999/02/22-rdf-syntax-ns#"
   xmlns:svg="http://www.w3.org/2000/svg"
   xmlns="http://www.w3.org/2000/svg"
   xmlns:sodipodi="http://sodipodi.sourceforge.net/DTD/sodipodi-0.dtd"
   xmlns:inkscape="http://www.inkscape.org/namespaces/inkscape"
   id="Layer_1"
   data-name="Layer 1"
   viewBox="0 0 422.2 185.2"
   version="1.1"
   sodipodi:docname="logo.svg"
   inkscape:version="1.0.1 (c497b03c, 2020-09-10)">
  <metadata
     id="metadata238">
    <rdf:RDF>
      <cc:Work
         rdf:about="">
        <dc:format>image/svg+xml</dc:format>
        <dc:type
           rdf:resource="http://purl.org/dc/dcmitype/StillImage" />
        <dc:title />
      </cc:Work>
    </rdf:RDF>
  </metadata>
  <defs
     id="defs236" />
  <sodipodi:namedview
     pagecolor="#ffffff"
     bordercolor="#666666"
     borderopacity="1"
     objecttolerance="10"
     gridtolerance="10"
     guidetolerance="10"
     inkscape:pageopacity="0"
     inkscape:pageshadow="2"
     inkscape:window-width="1995"
     inkscape:window-height="1052"
     id="namedview234"
     showgrid="false"
     inkscape:zoom="3.1272843"
     inkscape:cx="190.31734"
     inkscape:cy="82.740552"
     inkscape:window-x="0"
     inkscape:window-y="25"
     inkscape:window-maximized="0"
     inkscape:current-layer="Layer_1"
     inkscape:document-rotation="0" />
  <rect
     style="fill:#ffffff"
     id="rect146"
     width="422.41122"
     height="185.46443"
     x="0"
     y="0" />
  <path
     d="M141.9,50.6a10.57,10.57,0,0,0,3.1.2,9.84,9.84,0,0,0,9-9,11.38,11.38,0,0,0-.4-3.7l-.5-1.8-5.2,5.2-4-4,5.2-5.2-1.8-.5a9.38,9.38,0,0,0-3.7-.4,9.84,9.84,0,0,0-9,9,10.12,10.12,0,0,0,.2,3L123.9,53.7H111a15.41,15.41,0,0,0-4.9-3c-.7-1.7-3.5-6.2-12.7-6H91.5c-9.1-.2-11.9,4.3-12.7,6a15.41,15.41,0,0,0-4.9,3H60.8l-.1-.1L52.1,45V40.3L42.8,31l-11,11,9.4,9.4h4.7l8.4,8.4v58.6L34,137.4a5.38,5.38,0,0,0-.4,7.6l.2.2,6.4,6.4a5.46,5.46,0,0,0,3.8,1.6,5.22,5.22,0,0,0,3.8-1.6l.2-.2,19.3-20.7H79.8c3.8,4.7,8.3,8.5,12.9,8.5h.1c3.9-.1,8.3-2.9,13.1-8.5h13.4l.1.1L137.7,150h0l.3.3a9.42,9.42,0,0,0,13.4,0l.3-.3a9.49,9.49,0,0,0,2.4-6.8,9.15,9.15,0,0,0-3.1-6.5l-19.6-18.5-.1-.1V61.8Zm-4.7-6.5-.2-.7a7.19,7.19,0,0,1-.3-2.9,7.6,7.6,0,0,1,6.9-7h.9l-3.9,3.9,7.2,7.2,3.9-3.9v.9a7.6,7.6,0,0,1-6.9,7,7,7,0,0,1-2.9-.3l-.7-.2L131.1,58.6V53.7H127ZM91.3,47h1.9c6.8-.1,9.4,2.6,10.3,4.1a7.31,7.31,0,0,0-2.5,2.5c-2,3.1-2.9,8.1-2.5,14.8a1.11,1.11,0,0,0,1.1,1.1h.1a1.2,1.2,0,0,0,1.1-1.2c-.8-12.7,3.4-15,4.2-15.4,11.7,4.3,11,21.6,10.7,25.8-3.5.2-15.6.8-23.4.8l-23.5-.8c-.3-4.2-1-21.5,10.6-25.8,1,.4,4.9,3,4.1,15.3a1.13,1.13,0,0,0,1.1,1.2h.1a1.11,1.11,0,0,0,1.1-1.1c.7-12-2.8-15.9-4.9-17.2C81.8,49.7,84.3,46.9,91.3,47Zm6.9,61.7c0,2-.1,17.1-4.5,25.3l.3-32.3A23.66,23.66,0,0,0,98.2,108.7Zm-6.4-5.9-.3,31.8c-4.4-7.7-4.6-22.1-4.6-24.9A21.35,21.35,0,0,0,91.8,102.8Zm-18.4,6.9h-.6a11.45,11.45,0,0,0,3.6-3.9c4.5-7.4,10.2-8.8,13.5-8.9a18.88,18.88,0,0,0-9.1,8.7C79.4,108.1,77,109.5,73.4,109.7Zm38.5-4.9c-4.9-8-11.3-9.7-15.2-9.9a15.66,15.66,0,0,0,2.1-1.7,1.13,1.13,0,0,0-1.6-1.6,6.58,6.58,0,0,1-4.9,2.3,6.36,6.36,0,0,1-4.2-2.2,1.14,1.14,0,1,0-1.8,1.4,8.82,8.82,0,0,0,1.9,1.7c-.6.1-1.2.2-1.9.3-3.3.8-8.1,3.1-12,9.5a8.26,8.26,0,0,1-3.8,3.7l-.9-13.8v-.6L69,83.2c2.8,2.2,9.2,4.7,23.5,4.7a118.39,118.39,0,0,0,12.2-1.1c5.1-.8,8.7-1.9,10.8-3.4l-.5,24.8A9.5,9.5,0,0,1,111.9,104.8Zm1.1,4.7a7.48,7.48,0,0,1-6.3-4,18.76,18.76,0,0,0-8-8.1c3.3.6,7.6,2.7,11.3,8.6A11.73,11.73,0,0,0,113,109.5Zm-8.6-25a116.06,116.06,0,0,1-11.9,1.1C78,85.6,72.4,83,70.3,81.2l22,.5h0c7.2,0,18.3-.5,22.6-.8C114,82,111.3,83.4,104.4,84.5ZM67.3,91.4c-1.8-2.1-3.3-4.6-2.9-6.8a2,2,0,0,1,.4-.8,3.44,3.44,0,0,1,2-.4Zm15.4,15.2a16.23,16.23,0,0,1,8.2-7.7c-1.3,4.3-4.8,11.8-13.3,12.4h-.4A9.63,9.63,0,0,0,82.7,106.6Zm1.9,4.8c.1,4.5.6,14.8,3.8,22.2-6.5-6.5-9-17.3-9.6-20.2A14.23,14.23,0,0,0,84.6,111.4Zm15.8-.7a14,14,0,0,0,5.5,2.6c-.5,2.8-3.1,14-9.7,20.5C99.7,126.4,100.4,115.5,100.4,110.7Zm-3.1-7.1a28.83,28.83,0,0,1-2.1-5.3,16.75,16.75,0,0,1,9.4,8.2,9.37,9.37,0,0,0,6.9,5,27.15,27.15,0,0,1-2.8-.1Q101.35,111,97.3,103.6Zm20.5-20.1h.2a3.89,3.89,0,0,1,2.5.3.81.81,0,0,1,.4.8c.4,2.4-1.3,5.2-3.4,7.3Zm-71-34.4H42.1L35,42l7.8-7.8,7.1,7.1V46l7.7,7.8H54.2v2.8Zm-.6,100.6-.1.1a3.14,3.14,0,0,1-4.4,0l-6.4-6.4-.1-.1a3.24,3.24,0,0,1,.2-4.4l18.8-17.6v9.2H64Zm10.3-21.4V56H71.6A25.79,25.79,0,0,0,67,67.4a42.53,42.53,0,0,0-.6,7.1,36.18,36.18,0,0,0,.2,4.7,5.44,5.44,0,0,1,0,1.8h0v.2a5.34,5.34,0,0,0-3.1.8,3.68,3.68,0,0,0-1.4,2.2c-.6,3.8,2.3,7.9,5.4,10.6l.9,13.4a6.38,6.38,0,0,1-2.8-2.3,1.17,1.17,0,0,0-2.1.7,6.34,6.34,0,0,0,2.1,4.2,9.55,9.55,0,0,0,3.1,1.9v.1H69c0,.1,0,.1.1.2A97.25,97.25,0,0,0,78,128.5H56.5Zm15.2-15a20.52,20.52,0,0,0,3.7.3h1.2a53.57,53.57,0,0,0,2.9,9.8,39.42,39.42,0,0,0,5.6,9.8C79.5,128.1,74.2,118.7,71.7,113.3Zm27.8,20.3a36.19,36.19,0,0,0,5.8-10.1,53.57,53.57,0,0,0,2.9-9.8h.4a19.27,19.27,0,0,0,2.4.1,20.16,20.16,0,0,0,3.6-.3C111.7,118.9,105.6,128.6,99.5,133.6Zm9.8-7.6a142.2,142.2,0,0,0,8-12.7.75.75,0,0,0,.1-.5,8.77,8.77,0,0,0,3.4-2,6.17,6.17,0,0,0,2.1-4.2,1.17,1.17,0,0,0-.8-1.1,1.25,1.25,0,0,0-1.3.4,6.79,6.79,0,0,1-3.5,2.5l.3-13.6c3.2-2.7,6.3-6.9,5.6-10.8a3.28,3.28,0,0,0-1.4-2.2,5.75,5.75,0,0,0-4-.7v-.4c.1-2.5.3-4.9.2-7.4a42,42,0,0,0-.6-6.1,24.68,24.68,0,0,0-4.6-11.4h16v72.4H107.5A13.23,13.23,0,0,0,109.3,126Zm40,12.3a7.23,7.23,0,0,1,2.4,5,7.68,7.68,0,0,1-1.8,5.2l-.3.3a7.12,7.12,0,0,1-10.1,0c-.1-.1-.1-.2-.2-.2l-17-17.8h8.9v-9.5Z"
     id="path143" />
  <path
     d="M186,67.9h11.2v2h-9v6h8.4v2h-8.4V86H186Z"
     id="path145" />
  <path
     d="M209.7,67.9h2l7.7,18h-2.5l-1.8-4.4h-9l-1.9,4.4h-2.4Zm.9,2.8h0l-3.8,8.9h7.4Z"
     id="path147" />
  <path
     d="M226.8,67.9h5.5a16.35,16.35,0,0,1,2.2.2,6.39,6.39,0,0,1,1.9.8,3.76,3.76,0,0,1,1.4,1.4,4.65,4.65,0,0,1,.5,2.1,3.74,3.74,0,0,1-.9,2.6,4.64,4.64,0,0,1-2.3,1.5v.1a7.49,7.49,0,0,1,1.6.4,4.12,4.12,0,0,1,1.3,1,4.83,4.83,0,0,1,.9,1.4,4.67,4.67,0,0,1,.3,1.7,4.87,4.87,0,0,1-.6,2.5,4.57,4.57,0,0,1-1.6,1.5,7.8,7.8,0,0,1-2.3.8,10.55,10.55,0,0,1-2.5.2h-5.4V67.9Zm2.2,7.7h3a7.57,7.57,0,0,0,1.5-.1,5,5,0,0,0,1.3-.4,2,2,0,0,0,.9-.9,3.31,3.31,0,0,0,.4-1.5,2.9,2.9,0,0,0-.3-1.4,2.36,2.36,0,0,0-.9-.8,5.64,5.64,0,0,0-1.2-.4,6.6,6.6,0,0,0-1.4-.1H229Zm0,8.4h3.6a10,10,0,0,0,1.6-.2,5.78,5.78,0,0,0,1.4-.5,2.86,2.86,0,0,0,1.4-2.5,2.73,2.73,0,0,0-.4-1.6,2.41,2.41,0,0,0-1-1,5.78,5.78,0,0,0-1.4-.5,7.77,7.77,0,0,0-1.6-.2H229Z"
     id="path149" />
  <path
     d="M188.3,106.2V116a1.12,1.12,0,0,1-2.2,0v-9.8a1,1,0,0,1,1.1-.9C187.8,105.4,188.3,105.8,188.3,106.2Z"
     id="path159" />
  <path
     d="M203.5,109.63h.08l3.24-2.63h.88l-3.46,2.75,2.78,3.32h-.91l-2.55-3.13h-.1l-.44,3.13h-.62l.86-6.07h.62Z"
     id="path161" />
  <path
     d="M208.6,113.07H208l.56-4h.57Zm.91-5.56a.42.42,0,0,1-.17.3.43.43,0,0,1-.3.11.35.35,0,0,1-.35-.41.46.46,0,0,1,.17-.29.48.48,0,0,1,.3-.12.36.36,0,0,1,.27.12A.32.32,0,0,1,209.51,107.51Z"
     id="path163" />
  <path
     d="M213.63,110a1,1,0,0,0-.35-.38,1.05,1.05,0,0,0-.57-.15,1.54,1.54,0,0,0-.65.11,1.51,1.51,0,0,0-.52.34,1.46,1.46,0,0,0-.37.51,2.18,2.18,0,0,0-.2.64,1.71,1.71,0,0,0,0,.64,1.46,1.46,0,0,0,.22.51,1.18,1.18,0,0,0,.43.33,1.37,1.37,0,0,0,.62.11,1.32,1.32,0,0,0,.62-.15,1.42,1.42,0,0,0,.45-.38l.42.35a2.16,2.16,0,0,1-.75.52,2.37,2.37,0,0,1-.82.18,2.31,2.31,0,0,1-.86-.15,1.65,1.65,0,0,1-.61-.45,1.51,1.51,0,0,1-.33-.67,2.14,2.14,0,0,1,0-.84,2.41,2.41,0,0,1,.26-.85,2.46,2.46,0,0,1,.52-.67,2.36,2.36,0,0,1,.73-.45,2.67,2.67,0,0,1,.91-.15,1.93,1.93,0,0,1,.76.18,1.59,1.59,0,0,1,.61.52Z"
     id="path165" />
  <path
     d="M215.6,110.87l2.15-1.81h.85l-2.25,1.83,1.9,2.18h-.87L215.59,111l-.3,2.11h-.57l.91-6.48h.57Z"
     id="path167" />
  <path
     d="M221.33,111.3h-2.2l.07-.57h2.21Z"
     id="path169" />
  <path
     d="M226.68,111.07a2.52,2.52,0,0,1-.81,1.51,2.5,2.5,0,0,1-.74.44,2.6,2.6,0,0,1-.89.16,2.15,2.15,0,0,1-.83-.16,1.63,1.63,0,0,1-.61-.44,1.66,1.66,0,0,1-.35-.67,2.13,2.13,0,0,1,0-.84,2.24,2.24,0,0,1,.28-.85,2.45,2.45,0,0,1,.53-.66,2.53,2.53,0,0,1,.74-.45,2.49,2.49,0,0,1,.87-.16,2.17,2.17,0,0,1,.84.16,1.77,1.77,0,0,1,.62.45,1.68,1.68,0,0,1,.35.66A2.38,2.38,0,0,1,226.68,111.07Zm-.62,0a1.47,1.47,0,0,0,0-.63,1.25,1.25,0,0,0-.23-.51,1.32,1.32,0,0,0-.43-.34,1.49,1.49,0,0,0-.62-.12,1.66,1.66,0,0,0-.64.12,1.87,1.87,0,0,0-.52.34,1.91,1.91,0,0,0-.37.51,2.11,2.11,0,0,0-.2.63,1.83,1.83,0,0,0,0,.62,1.21,1.21,0,0,0,.24.51,1.17,1.17,0,0,0,.42.34,1.49,1.49,0,0,0,.62.12,1.75,1.75,0,0,0,.65-.12,1.8,1.8,0,0,0,.52-.34,1.59,1.59,0,0,0,.37-.51A1.88,1.88,0,0,0,226.06,111.07Z"
     id="path171" />
  <path
     d="M230.1,109.57h-.95l-.5,3.5h-.56l.48-3.5h-.84l.07-.51h.85l.16-1.1a1.74,1.74,0,0,1,.52-1.14,1.62,1.62,0,0,1,1-.34l.24,0,.24,0-.17.52-.21,0a.78.78,0,0,0-.22,0,.8.8,0,0,0-.39.08.72.72,0,0,0-.25.21,1.66,1.66,0,0,0-.15.33c0,.13-.06.26-.08.41l-.14,1h1Z"
     id="path173" />
  <path
     d="M232.8,109.57h-1l-.49,3.5h-.57l.49-3.5h-.85l.08-.51h.85l.15-1.1a1.75,1.75,0,0,1,.53-1.14,1.61,1.61,0,0,1,1-.34l.25,0,.24,0-.18.52-.2,0a.86.86,0,0,0-.22,0,.78.78,0,0,0-.39.08.58.58,0,0,0-.25.21,1.66,1.66,0,0,0-.15.33,1.75,1.75,0,0,0-.08.41l-.15,1h1Z"
     id="path175" />
  <path
     d="M237.56,112.38l1.7-3.32H240l-2.72,5.06a2.63,2.63,0,0,1-.57.74,1.25,1.25,0,0,1-.84.27h-.26a1.1,1.1,0,0,1-.26-.06l.14-.55a.7.7,0,0,0,.2.08l.22,0a.68.68,0,0,0,.5-.19,2.13,2.13,0,0,0,.38-.53l.39-.77-1.07-4.07h.71Z"
     id="path177" />
  <path
     d="M244.76,111.07a2.52,2.52,0,0,1-.81,1.51,2.38,2.38,0,0,1-.74.44,2.6,2.6,0,0,1-.89.16,2.19,2.19,0,0,1-.83-.16,1.63,1.63,0,0,1-.61-.44,1.66,1.66,0,0,1-.35-.67,2,2,0,0,1,0-.84,2.42,2.42,0,0,1,.27-.85,2.3,2.3,0,0,1,.54-.66,2.48,2.48,0,0,1,.73-.45,2.55,2.55,0,0,1,.88-.16,2.24,2.24,0,0,1,.84.16,1.73,1.73,0,0,1,.61.45,1.68,1.68,0,0,1,.35.66A2.17,2.17,0,0,1,244.76,111.07Zm-.62,0a1.65,1.65,0,0,0,0-.63,1.41,1.41,0,0,0-.24-.51,1.32,1.32,0,0,0-.43-.34,1.44,1.44,0,0,0-.61-.12,1.71,1.71,0,0,0-.65.12,1.87,1.87,0,0,0-.52.34,1.91,1.91,0,0,0-.37.51,2.11,2.11,0,0,0-.2.63,1.6,1.6,0,0,0,0,.62,1.19,1.19,0,0,0,.23.51,1.12,1.12,0,0,0,.43.34,1.44,1.44,0,0,0,.61.12,1.71,1.71,0,0,0,.65-.12,1.67,1.67,0,0,0,.52-.34,1.79,1.79,0,0,0,.38-.51A2.13,2.13,0,0,0,244.14,111.07Z"
     id="path179" />
  <path
     d="M248.72,113.07c0-.1,0-.21,0-.32s0-.21,0-.32h0a1.64,1.64,0,0,1-.29.3,2.25,2.25,0,0,1-.36.24,2.74,2.74,0,0,1-.4.15,1.51,1.51,0,0,1-.41.06,1.27,1.27,0,0,1-1.08-.41,1.51,1.51,0,0,1-.21-1.16l.36-2.55H247l-.32,2.22a2.4,2.4,0,0,0,0,.59,1.14,1.14,0,0,0,.11.44.7.7,0,0,0,.3.26,1.23,1.23,0,0,0,.51.09h.14l.24-.06a1.25,1.25,0,0,0,.31-.15,1.09,1.09,0,0,0,.31-.27,1.59,1.59,0,0,0,.27-.43,2.41,2.41,0,0,0,.17-.62l.29-2.06h.56l-.44,3.13c0,.11,0,.25,0,.41s0,.33,0,.47Z"
     id="path181" />
  <path
     d="M251.34,110.31c0-.18,0-.36.07-.54s0-.42.08-.71h.57l-.11.74h0a1.88,1.88,0,0,1,.21-.31,1.93,1.93,0,0,1,.3-.27,1.64,1.64,0,0,1,.4-.19,1.42,1.42,0,0,1,.48-.08,1.33,1.33,0,0,1,.42.06l-.2.55a1.11,1.11,0,0,0-.31,0,1.21,1.21,0,0,0-.58.13,1.62,1.62,0,0,0-.43.31,1.92,1.92,0,0,0-.28.42,1.24,1.24,0,0,0-.13.43l-.33,2.26H251Z"
     id="path183" />
  <path
     d="M257.81,107h.62l-.38,2.63h3.32l.37-2.63h.62l-.86,6.07h-.61l.4-2.87H258l-.41,2.87H257Z"
     id="path185" />
  <path
     d="M264.84,112.38l1.7-3.32h.69l-2.72,5.06a2.63,2.63,0,0,1-.57.74,1.25,1.25,0,0,1-.84.27h-.26a1.1,1.1,0,0,1-.26-.06l.14-.55a.7.7,0,0,0,.2.08l.22,0a.68.68,0,0,0,.5-.19,2.13,2.13,0,0,0,.38-.53l.39-.77-1.07-4.07h.71Z"
     id="path187" />
  <path
     d="M268.27,109.06h.56l-.09.67h0a1.37,1.37,0,0,1,.37-.35,2,2,0,0,1,.43-.24A1.73,1.73,0,0,1,270,109a2.18,2.18,0,0,1,.42,0,2.21,2.21,0,0,1,.84.16,1.77,1.77,0,0,1,.62.45,1.66,1.66,0,0,1,.34.66,2.16,2.16,0,0,1,0,.85,2.68,2.68,0,0,1-.28.84,2.49,2.49,0,0,1-.54.67,2.45,2.45,0,0,1-.73.44,2.65,2.65,0,0,1-.89.16,2,2,0,0,1-.41-.05A1.51,1.51,0,0,1,269,113a2.25,2.25,0,0,1-.36-.24,1.22,1.22,0,0,1-.27-.36h0l-.44,3.15h-.56Zm3.38,2a1.64,1.64,0,0,0,0-.63,1.27,1.27,0,0,0-.24-.51,1.23,1.23,0,0,0-.43-.34,1.41,1.41,0,0,0-.61-.12,1.84,1.84,0,0,0-.66.12,2,2,0,0,0-.55.34,1.84,1.84,0,0,0-.41.51,2.13,2.13,0,0,0-.21.63,1.59,1.59,0,0,0,0,.62,1.38,1.38,0,0,0,.27.51,1.32,1.32,0,0,0,.46.34,1.54,1.54,0,0,0,.63.12,1.66,1.66,0,0,0,.64-.12,1.72,1.72,0,0,0,.53-.34,1.76,1.76,0,0,0,.37-.51A2.15,2.15,0,0,0,271.65,111.07Z"
     id="path189" />
  <path
     d="M273.9,111.22a1.54,1.54,0,0,0,.06.57,1.48,1.48,0,0,0,.26.46,1.24,1.24,0,0,0,.41.3,1.26,1.26,0,0,0,.55.11,1.61,1.61,0,0,0,.82-.21,1.79,1.79,0,0,0,.56-.48l.39.36a2.6,2.6,0,0,1-.88.65,2.46,2.46,0,0,1-1,.2,2.09,2.09,0,0,1-.81-.16,1.72,1.72,0,0,1-.59-.44,1.79,1.79,0,0,1-.35-.67,2.13,2.13,0,0,1,0-.84,2.42,2.42,0,0,1,.79-1.51,2.51,2.51,0,0,1,.71-.45,2.26,2.26,0,0,1,.82-.16,1.8,1.8,0,0,1,.79.17,1.49,1.49,0,0,1,.55.43,1.62,1.62,0,0,1,.28.64,2,2,0,0,1,0,.77l0,.26Zm2.8-.46a1.17,1.17,0,0,0-.21-.93,1.12,1.12,0,0,0-.92-.36,1.49,1.49,0,0,0-.54.11,1.69,1.69,0,0,0-.49.28,1.64,1.64,0,0,0-.37.42,1.24,1.24,0,0,0-.19.48Z"
     id="path191" />
  <path
     d="M278.78,110.31l.06-.54c0-.18.05-.42.09-.71h.56l-.1.74h0a2,2,0,0,1,.22-.31,1.31,1.31,0,0,1,.3-.27,1.76,1.76,0,0,1,.39-.19,1.53,1.53,0,0,1,.49-.08,1.33,1.33,0,0,1,.42.06l-.2.55a1.13,1.13,0,0,0-.32,0,1.2,1.2,0,0,0-.57.13,1.35,1.35,0,0,0-.43.31,2,2,0,0,0-.29.42,1.5,1.5,0,0,0-.13.43l-.32,2.26h-.57Z"
     id="path193" />
  <path
     d="M282.19,113.07h-.57l.91-6.48h.57Z"
     id="path195" />
  <path
     d="M284.5,111.22a1.54,1.54,0,0,0,.07.57,1.31,1.31,0,0,0,.26.46,1.24,1.24,0,0,0,.41.3,1.23,1.23,0,0,0,.55.11,1.58,1.58,0,0,0,.81-.21,2,2,0,0,0,.57-.48l.39.36a2.63,2.63,0,0,1-.89.65,2.43,2.43,0,0,1-1,.2,2.08,2.08,0,0,1-.8-.16,1.67,1.67,0,0,1-.6-.44,1.77,1.77,0,0,1-.34-.67,2,2,0,0,1,0-.84,2.42,2.42,0,0,1,.79-1.51,2.46,2.46,0,0,1,.7-.45,2.3,2.3,0,0,1,.82-.16,1.81,1.81,0,0,1,.8.17,1.45,1.45,0,0,1,.54.43,1.5,1.5,0,0,1,.29.64,2.19,2.19,0,0,1,0,.77l0,.26Zm2.81-.46a1.13,1.13,0,0,0-.22-.93,1.09,1.09,0,0,0-.91-.36,1.49,1.49,0,0,0-.54.11,1.74,1.74,0,0,0-.5.28,1.86,1.86,0,0,0-.37.42,1.08,1.08,0,0,0-.18.48Z"
     id="path197" />
  <path
     d="M293,113.07h-.57l.1-.67h0a2.14,2.14,0,0,1-.38.36,3.62,3.62,0,0,1-.43.24,2,2,0,0,1-.44.13,2.18,2.18,0,0,1-.42.05,2.26,2.26,0,0,1-.85-.16,1.71,1.71,0,0,1-.61-.44,1.79,1.79,0,0,1-.35-.67,2,2,0,0,1,0-.84,2.42,2.42,0,0,1,.27-.85,2.69,2.69,0,0,1,.54-.66,2.48,2.48,0,0,1,.73-.45,2.6,2.6,0,0,1,.89-.16,2,2,0,0,1,.41,0,1.53,1.53,0,0,1,.41.14,1.41,1.41,0,0,1,.36.24,1.23,1.23,0,0,1,.28.35h0l.44-3.14h.57Zm-3.38-2a1.61,1.61,0,0,0,0,.62,1.17,1.17,0,0,0,.66.85,1.52,1.52,0,0,0,.62.12,1.84,1.84,0,0,0,.66-.12,2,2,0,0,0,.56-.34,1.85,1.85,0,0,0,.4-.51,1.69,1.69,0,0,0,.21-.62,1.32,1.32,0,0,0,0-.63,1.2,1.2,0,0,0-.27-.51,1.35,1.35,0,0,0-.46-.34,1.52,1.52,0,0,0-.62-.12,1.71,1.71,0,0,0-.65.12,1.87,1.87,0,0,0-.52.34,1.94,1.94,0,0,0-.38.51A2.1,2.1,0,0,0,289.57,111.07Z"
     id="path199" />
  <path
     d="M294.69,113.88a1.49,1.49,0,0,0,.57.54,1.85,1.85,0,0,0,.86.2,1.9,1.9,0,0,0,.75-.13,1.49,1.49,0,0,0,.53-.33,1.47,1.47,0,0,0,.34-.51,2.88,2.88,0,0,0,.17-.61l.09-.72h0a1.86,1.86,0,0,1-.75.58,2.16,2.16,0,0,1-.86.17,2.07,2.07,0,0,1-.8-.15,1.54,1.54,0,0,1-.6-.43,1.61,1.61,0,0,1-.36-.64,2,2,0,0,1-.05-.82,2.46,2.46,0,0,1,.79-1.47,2.46,2.46,0,0,1,.7-.45,2.41,2.41,0,0,1,.84-.16,2.58,2.58,0,0,1,.38,0,1.46,1.46,0,0,1,.39.12,1.61,1.61,0,0,1,.36.24,1.56,1.56,0,0,1,.33.38h0l.1-.67H299l-.55,4a4.34,4.34,0,0,1-.19.7,2.12,2.12,0,0,1-.41.67,2.23,2.23,0,0,1-.73.52,2.69,2.69,0,0,1-1.13.2,2.19,2.19,0,0,1-1.82-.8Zm.51-2.87a1.49,1.49,0,0,0,0,.6,1.32,1.32,0,0,0,.24.49,1.44,1.44,0,0,0,.43.34,1.29,1.29,0,0,0,.57.12,1.81,1.81,0,0,0,.6-.11,1.84,1.84,0,0,0,.54-.32,1.71,1.71,0,0,0,.4-.48,1.5,1.5,0,0,0,.2-.64,1.65,1.65,0,0,0,0-.59,1.17,1.17,0,0,0-.23-.49,1.37,1.37,0,0,0-.44-.34,1.49,1.49,0,0,0-.62-.12,1.53,1.53,0,0,0-.6.12,2,2,0,0,0-.52.34,2.11,2.11,0,0,0-.39.49A1.7,1.7,0,0,0,295.2,111Z"
     id="path201" />
  <path
     d="M300.69,111.22a1.54,1.54,0,0,0,.07.57,1.46,1.46,0,0,0,.25.46,1.28,1.28,0,0,0,1,.41,1.59,1.59,0,0,0,.82-.21,2,2,0,0,0,.57-.48l.38.36a2.6,2.6,0,0,1-.88.65,2.46,2.46,0,0,1-1,.2,2,2,0,0,1-.8-.16,1.67,1.67,0,0,1-.6-.44,1.77,1.77,0,0,1-.34-.67,2.13,2.13,0,0,1,0-.84,2.42,2.42,0,0,1,.27-.85,2.61,2.61,0,0,1,1.23-1.11,2.26,2.26,0,0,1,.82-.16,1.77,1.77,0,0,1,.79.17,1.49,1.49,0,0,1,.55.43,1.63,1.63,0,0,1,.29.64,2.19,2.19,0,0,1,0,.77l0,.26Zm2.81-.46a1.13,1.13,0,0,0-.22-.93,1.1,1.1,0,0,0-.91-.36,1.5,1.5,0,0,0-.55.11,1.83,1.83,0,0,0-.49.28,1.64,1.64,0,0,0-.37.42,1.08,1.08,0,0,0-.18.48Z"
     id="path203" />
  <path
     d="M305.57,110.31c0-.18.05-.36.07-.54s0-.42.08-.71h.57l-.11.74h0a1.88,1.88,0,0,1,.21-.31,1.93,1.93,0,0,1,.3-.27,1.64,1.64,0,0,1,.4-.19,1.42,1.42,0,0,1,.48-.08,1.33,1.33,0,0,1,.42.06l-.2.55a1.11,1.11,0,0,0-.31,0,1.21,1.21,0,0,0-.58.13,1.62,1.62,0,0,0-.43.31,1.92,1.92,0,0,0-.28.42,1.24,1.24,0,0,0-.13.43l-.33,2.26h-.56Z"
     id="path205" />
  <path
     d="M311.8,113.07h-.61L312,107h3.67l-.09.56h-3l-.3,2.07h2.84l-.08.57h-2.83Z"
     id="path207" />
  <path
     d="M319,110.61l0-.1c.09-.69-.21-1-.89-1a2,2,0,0,0-1.29.47l-.29-.4a2.16,2.16,0,0,1,.77-.44,3.11,3.11,0,0,1,1-.15,1.67,1.67,0,0,1,.55.09,1.24,1.24,0,0,1,.43.26,1.14,1.14,0,0,1,.26.44,1.65,1.65,0,0,1,0,.64l-.25,1.79c0,.16,0,.32-.05.49s0,.31,0,.41h-.55c0-.09,0-.2,0-.31s0-.23,0-.34h0a1.9,1.9,0,0,1-.67.58,2,2,0,0,1-.86.18,1.7,1.7,0,0,1-.51-.08,1,1,0,0,1-.41-.22,1,1,0,0,1-.25-.37.94.94,0,0,1,0-.51,1.24,1.24,0,0,1,.36-.77,1.84,1.84,0,0,1,.69-.41,3.3,3.3,0,0,1,.84-.17,7.59,7.59,0,0,1,.79,0Zm-.35.46-.54,0a2.76,2.76,0,0,0-.64.1,1.58,1.58,0,0,0-.54.25.68.68,0,0,0-.28.47.61.61,0,0,0,0,.34.43.43,0,0,0,.19.23.6.6,0,0,0,.28.13,1.32,1.32,0,0,0,.34,0,1.43,1.43,0,0,0,.56-.1,1.2,1.2,0,0,0,.41-.28,1.3,1.3,0,0,0,.28-.41,1.52,1.52,0,0,0,.15-.5l.05-.3Z"
     id="path209" />
  <path
     d="M321.73,106.59h.57l-.44,3.14h0a1.53,1.53,0,0,1,.37-.35,2.32,2.32,0,0,1,.43-.24,1.87,1.87,0,0,1,.44-.14,2.09,2.09,0,0,1,1.26.11,1.68,1.68,0,0,1,1,1.11,2.17,2.17,0,0,1,0,.85,2.52,2.52,0,0,1-.81,1.51,2.5,2.5,0,0,1-.74.44,2.6,2.6,0,0,1-.89.16,2,2,0,0,1-.41-.05,1.44,1.44,0,0,1-.4-.13,1.61,1.61,0,0,1-.36-.24,1.45,1.45,0,0,1-.28-.36h0l-.09.67h-.57Zm3,4.48a1.47,1.47,0,0,0,0-.63,1.25,1.25,0,0,0-.23-.51,1.32,1.32,0,0,0-.43-.34,1.48,1.48,0,0,0-.61-.12,1.85,1.85,0,0,0-.67.12,2.2,2.2,0,0,0-.55.34,1.81,1.81,0,0,0-.4.51,1.68,1.68,0,0,0-.21.63,1.29,1.29,0,0,0,0,.62,1.23,1.23,0,0,0,.26.51,1.41,1.41,0,0,0,.46.34,1.57,1.57,0,0,0,.63.12,1.75,1.75,0,0,0,.65-.12,1.8,1.8,0,0,0,.52-.34,1.59,1.59,0,0,0,.37-.51A1.88,1.88,0,0,0,324.77,111.07Z"
     id="path211" />
  <path
     d="M326.82,110.31c0-.18.05-.36.07-.54s0-.42.08-.71h.56l-.1.74h0a1.88,1.88,0,0,1,.21-.31,1.93,1.93,0,0,1,.3-.27,1.64,1.64,0,0,1,.4-.19,1.42,1.42,0,0,1,.48-.08,1.33,1.33,0,0,1,.42.06l-.2.55a1.11,1.11,0,0,0-.31,0,1.21,1.21,0,0,0-.58.13,1.48,1.48,0,0,0-.43.31,1.62,1.62,0,0,0-.28.42,1.24,1.24,0,0,0-.13.43l-.33,2.26h-.56Z"
     id="path213" />
  <path
     d="M330.23,113.07h-.57l.57-4h.57Zm.91-5.56a.51.51,0,0,1-.17.3.47.47,0,0,1-.3.11.34.34,0,0,1-.35-.41.39.39,0,0,1,.17-.29.44.44,0,0,1,.3-.12.34.34,0,0,1,.26.12A.3.3,0,0,1,331.14,107.51Z"
     id="path215" />
  <path
     d="M335.26,110a1.05,1.05,0,0,0-.35-.38,1.09,1.09,0,0,0-.58-.15,1.56,1.56,0,0,0-.65.11,1.61,1.61,0,0,0-.52.34,1.76,1.76,0,0,0-.37.51,2.17,2.17,0,0,0-.19.64,1.71,1.71,0,0,0,0,.64,1.31,1.31,0,0,0,.23.51,1.1,1.1,0,0,0,.43.33,1.32,1.32,0,0,0,.62.11,1.28,1.28,0,0,0,.61-.15,1.59,1.59,0,0,0,.46-.38l.42.35a2.3,2.3,0,0,1-.76.52,2.37,2.37,0,0,1-.81.18A2.24,2.24,0,0,1,333,113a1.57,1.57,0,0,1-.61-.45,1.51,1.51,0,0,1-.33-.67,2,2,0,0,1,0-.84,2.42,2.42,0,0,1,.27-.85,2.28,2.28,0,0,1,.52-.67,2.31,2.31,0,0,1,.72-.45,2.67,2.67,0,0,1,.91-.15,2,2,0,0,1,.77.18,1.5,1.5,0,0,1,.6.52Z"
     id="path217" />
  <path
     d="M340.15,109.06c0,.11,0,.21,0,.32s0,.21,0,.32h0a1.32,1.32,0,0,1,.28-.3,1.69,1.69,0,0,1,.36-.23,2,2,0,0,1,.4-.16,1.51,1.51,0,0,1,.41-.06,1.28,1.28,0,0,1,1.08.41,1.52,1.52,0,0,1,.21,1.17l-.36,2.54h-.56l.31-2.22a3.1,3.1,0,0,0,0-.59,1,1,0,0,0-.11-.43.66.66,0,0,0-.3-.27,1.25,1.25,0,0,0-.52-.09l-.24,0a1.46,1.46,0,0,0-.44.19,1.87,1.87,0,0,0-.46.47,2,2,0,0,0-.29.85l-.29,2.06H339l.44-3.13c0-.11,0-.24,0-.41s0-.32,0-.47Z"
     id="path219" />
  <path
     d="M344.77,111.22a1.54,1.54,0,0,0,.07.57,1.29,1.29,0,0,0,.25.46,1.24,1.24,0,0,0,.41.3,1.26,1.26,0,0,0,.55.11,1.61,1.61,0,0,0,.82-.21,2,2,0,0,0,.57-.48l.38.36a2.6,2.6,0,0,1-.88.65,2.46,2.46,0,0,1-1,.2,2.09,2.09,0,0,1-.81-.16,1.72,1.72,0,0,1-.59-.44,1.64,1.64,0,0,1-.34-.67,2,2,0,0,1,0-.84,2.42,2.42,0,0,1,.27-.85,2.62,2.62,0,0,1,.52-.66,2.51,2.51,0,0,1,.71-.45,2.26,2.26,0,0,1,.82-.16,1.77,1.77,0,0,1,.79.17,1.49,1.49,0,0,1,.55.43,1.62,1.62,0,0,1,.28.64,2,2,0,0,1,0,.77l-.05.26Zm2.8-.46a1.13,1.13,0,0,0-.21-.93,1.11,1.11,0,0,0-.91-.36,1.5,1.5,0,0,0-.55.11,1.69,1.69,0,0,0-.49.28,1.64,1.64,0,0,0-.37.42,1.24,1.24,0,0,0-.19.48Z"
     id="path221" />
  <path
     d="M351.77,109.57h-1.16l-.32,2.37a1.58,1.58,0,0,0,0,.37.41.41,0,0,0,.09.21.28.28,0,0,0,.17.11.85.85,0,0,0,.23,0,1,1,0,0,0,.3,0,2.09,2.09,0,0,0,.3-.11l-.05.52a2,2,0,0,1-.79.15,1.39,1.39,0,0,1-.33-.05.56.56,0,0,1-.29-.16.8.8,0,0,1-.2-.32,1.21,1.21,0,0,1,0-.55l.35-2.53h-.84l.07-.51h.85l.16-1.14h.56l-.15,1.14h1.16Z"
     id="path223" />
  <path
     d="M353.1,109.06l.46,3.26h0l1.54-3.26h.58l.61,3.26h0l1.39-3.26h.67l-1.84,4h-.63l-.61-3.29h0l-1.53,3.29h-.64l-.7-4Z"
     id="path225" />
  <path
     d="M363.21,111.07a2.52,2.52,0,0,1-.81,1.51,2.5,2.5,0,0,1-.74.44,2.6,2.6,0,0,1-.89.16,2.19,2.19,0,0,1-.83-.16,1.63,1.63,0,0,1-.61-.44,1.66,1.66,0,0,1-.35-.67,2.13,2.13,0,0,1,0-.84,2.43,2.43,0,0,1,.28-.85,2.3,2.3,0,0,1,.54-.66,2.36,2.36,0,0,1,.73-.45,2.55,2.55,0,0,1,.88-.16,2.24,2.24,0,0,1,.84.16,1.73,1.73,0,0,1,.61.45,1.68,1.68,0,0,1,.35.66A2.17,2.17,0,0,1,363.21,111.07Zm-.62,0a1.47,1.47,0,0,0,0-.63,1.25,1.25,0,0,0-.23-.51,1.32,1.32,0,0,0-.43-.34,1.44,1.44,0,0,0-.61-.12,1.71,1.71,0,0,0-.65.12,1.87,1.87,0,0,0-.52.34,1.91,1.91,0,0,0-.37.51,2.11,2.11,0,0,0-.2.63,1.6,1.6,0,0,0,0,.62,1.19,1.19,0,0,0,.23.51,1.12,1.12,0,0,0,.43.34,1.44,1.44,0,0,0,.61.12,1.75,1.75,0,0,0,.65-.12,1.67,1.67,0,0,0,.52-.34,1.59,1.59,0,0,0,.37-.51A1.88,1.88,0,0,0,362.59,111.07Z"
     id="path227" />
  <path
     d="M364.71,110.31c0-.18.05-.36.07-.54s0-.42.08-.71h.56l-.1.74h0a1.41,1.41,0,0,1,.21-.31,1.93,1.93,0,0,1,.3-.27,1.64,1.64,0,0,1,.4-.19,1.42,1.42,0,0,1,.48-.08,1.33,1.33,0,0,1,.42.06l-.2.55a1.11,1.11,0,0,0-.31,0,1.21,1.21,0,0,0-.58.13,1.48,1.48,0,0,0-.43.31,1.62,1.62,0,0,0-.28.42,1.54,1.54,0,0,0-.14.43l-.32,2.26h-.57Z"
     id="path229" />
  <path
     d="M368.3,110.87l2.15-1.81h.85l-2.25,1.83,1.9,2.18h-.88L368.29,111l-.3,2.11h-.57l.91-6.48h.57Z"
     id="path231" />
  <path
     d="M186,67.9h11.2v2h-9v6h8.4v2h-8.4V86H186Z"
     id="path249" />
  <path
     d="m 247.9,86.3 h 11.2 v -2 h -9 v 0 l 9,2 v -2 h -9 l 0,-16.1 h -2.2 z"
     id="path257"
     sodipodi:nodetypes="ccccccccccc" />
  <g
     id="g293"
     transform="translate(-14.959299)">
    <ellipse
       style="fill:#000000;stroke-width:1.0144"
       id="path267"
       cx="288.49765"
       cy="76.94754"
       rx="9.1087055"
       ry="9.4590406" />
    <ellipse
       style="fill:#ffffff;stroke-width:1.24229"
       id="path289"
       cx="288.47971"
       cy="76.933533"
       rx="7.0627503"
       ry="7.6232853" />
  </g>
</svg>
